<?xml version="1.0" encoding="UTF-8"?>
<svg width="20px" height="19px" viewBox="0 0 20 19" version="1.1" xmlns="http://www.w3.org/2000/svg" xmlns:xlink="http://www.w3.org/1999/xlink">
    <!-- Generator: Sketch 61 (89581) - https://sketch.com -->
    <title>download</title>
    <desc>Created with Sketch.</desc>
    <g id="download" stroke="none" stroke-width="1" fill="none" fill-rule="evenodd">
        <path d="M0.940533548,12 C0.940533548,13.272 0.317533548,16.868 1.76053355,17.614 C3.03953355,18.276 4.73353355,18 6.13553355,18 L6.13553355,18 L13.3115335,18 C14.5303571,18 16.0584401,18.2271972 17.3294452,17.909161 L17.467,17.869 L17.4086638,17.9474532 L17.4086638,17.9474532 L17.281,18.086 L17.0444668,18.1898485 C15.587711,18.7635508 13.8469254,18.5320792 12.284321,18.5028621 L11.9935335,18.5 L2.62353355,18.5 C-0.685466452,18.5 0.0755335483,14.831 0.0755335483,12.5 C0.0755335483,12.327 0.940533548,12.16 0.940533548,12 Z M18.9405335,12 C18.9405335,13.8644194 19.4988665,16.4289428 17.931932,17.6927406 L17.894,17.719 L17.8567711,17.7372261 C17.7720571,17.7721962 17.6856186,17.8038215 17.5976622,17.8323835 L17.467,17.869 L17.5438251,17.7703871 C18.475027,16.4351441 18.1112772,14.3111592 18.0778865,12.7143548 L18.0755335,12.5 C18.0755335,12.327 18.9405335,12.16 18.9405335,12 Z M9.94073355,0 L9.94,11.636 L14.0755335,7.5 C14.2663669,7.30916667 14.5835891,7.24611111 14.8142373,7.09960648 L14.9405335,7 L14.9405335,7 L9.94073355,12 C9.94073355,12.0725789 9.78848795,12.1441018 9.61174033,12.2144948 C9.3729862,12.3580483 9.09107994,12.5155464 9.07553355,12.5 L9.07553355,12.5 L9.48695408,12.263077 C9.37066739,12.3079021 9.25643696,12.352255 9.17799784,12.3961164 L9.07553355,12.5 L9.07553355,12.5 L4.07553355,7.5 C4.13153355,7.556 4.87553355,6.934 4.94053355,7 L4.94053355,7 L9.075,11.135 L9.07573355,0.5 C9.07573355,0.3443 9.77638355,0.19346 9.91651355,0.048209 L9.94073355,0 Z" id="Combined-Shape" fill="#FFFFFF"></path>
    </g>
</svg>