<?xml version="1.0" encoding="UTF-8"?>
<svg width="20px" height="20px" viewBox="0 0 20 20" version="1.1" xmlns="http://www.w3.org/2000/svg" xmlns:xlink="http://www.w3.org/1999/xlink">
    <!-- Generator: Sketch 61 (89581) - https://sketch.com -->
    <title>eye_off</title>
    <desc>Created with Sketch.</desc>
    <g id="eye_off" stroke="none" stroke-width="1" fill="none" fill-rule="evenodd">
        <g id="Group-3" fill="#FFFFFF">
            <path d="M14.729913,15.1689663 C10.5081739,18.1307054 5.64904348,15.8428793 2.67773913,12.3985315 C1.95426087,11.5611402 1.31773913,10.6228793 0.793391304,9.64722714 C0.580347826,9.2507054 1.98817391,7.62461844 2.24556522,7.28027062 C3.06556522,6.18287931 4.08730435,5.25505322 5.1533913,4.40461844 C4.92991304,4.58287931 4.62469565,4.66027062 4.40034783,4.83940105 C3.296,5.72027062 -0.637913043,8.90548801 0.251652174,10.4611402 C1.26730435,12.2359228 2.6386087,13.8028793 4.24817391,15.0602706 C7.78991304,17.8263576 12.0403478,17.1489663 15.4829565,14.7341837 C15.2473043,14.8994011 14.9664348,15.0028793 14.729913,15.1689663" id="Fill-5"></path>
            <path d="M7.73904348,3.25661844 C11.4068696,2.54618366 14.5016522,4.18966192 16.9268696,6.85227062 C17.6738261,7.67140105 18.3155652,8.59487931 18.8790435,9.54705322 C19.486,10.5740097 17.8842609,11.9948793 17.252087,12.777488 C17.419913,12.5687924 17.8338261,12.5548793 18.0051304,12.3427054 C18.6451304,11.5496619 20.2251304,10.1505315 19.632087,9.11227062 C19.079913,8.14705322 18.406,7.25835757 17.6807826,6.41748801 C15.3451304,3.70966192 12.086,2.12531409 8.49208696,2.82183583 C8.22165217,2.87487931 8.006,3.20444453 7.73904348,3.25661844" id="Fill-7"></path>
            <path d="M11.4087826,11.8478358 C11.0357391,12.2174011 10.5766087,12.2747924 9.94530435,12.2252271 C9.24182609,12.169575 8.63052174,11.7547924 8.18878261,11.229575 C7.3113913,10.1878358 7.56269565,8.63827062 8.47486957,7.7260967 C8.27834783,7.92261844 7.92095652,7.96174888 7.72182609,8.16087931 C6.34182609,9.54087931 6.80356522,11.7808793 8.60443478,12.5200097 C9.81052174,13.0147924 11.2957391,12.269575 12.1618261,11.4130532 C11.9635652,11.609575 11.6087826,11.649575 11.4087826,11.8478358" id="Fill-9"></path>
            <path d="M-6.17863248e-15,0.439053224 C6.37652174,6.81557496 12.753913,13.1929663 19.1304348,19.569488 C19.1878261,19.6268793 19.8347826,19.0860097 19.8834783,19.1347054 C13.5069565,12.7581837 7.13043478,6.38079235 0.753043478,0.00427061558 C0.695652174,-0.0531206888 0.0486956522,0.487748876 -6.17863248e-15,0.439053224" id="Fill-11"></path>
        </g>
    </g>
</svg>