<?xml version="1.0" encoding="UTF-8"?>
<svg width="20px" height="18px" viewBox="0 0 20 18" version="1.1" xmlns="http://www.w3.org/2000/svg" xmlns:xlink="http://www.w3.org/1999/xlink">
    <!-- Generator: Sketch 61 (89581) - https://sketch.com -->
    <title>fav</title>
    <desc>Created with Sketch.</desc>
    <g id="fav" stroke="none" stroke-width="1" fill="none" fill-rule="evenodd">
        <path d="M18.2721537,1.4158392 C15.1339719,-1.35688807 11.8939719,0.389475567 9.44851734,2.83402102 C9.71124461,2.68311193 9.97397189,2.53129375 10.2357901,2.37947557 C8.15306279,0.296748294 5.78760825,-0.835978979 2.9821537,0.76220284 C0.302153704,2.28856648 -0.817846296,5.12038466 0.650335522,7.96493011 C1.44306279,9.50038466 3.47851734,11.0085665 4.68760825,12.2176574 C6.27488098,13.8049301 7.8621537,15.3931119 9.44851734,16.9803847 C9.47306279,17.004021 10.1739719,16.5876574 10.2357901,16.5258392 C12.2639719,14.4976574 14.2903355,12.4703847 16.3185173,10.4431119 C16.9694264,9.79129375 17.6203355,9.14038466 18.2721537,8.48856648 C20.2012446,6.56129375 20.2003355,3.34311193 18.2721537,1.4158392 C18.2130628,1.3558392 17.5357901,1.92129375 17.4857901,1.87038466 C19.324881,3.71038466 19.3112446,6.40947557 17.9012446,8.47220284 C17.3439719,9.28947557 16.4485173,9.97856648 15.7457901,10.6831119 C13.6466992,12.7812937 11.5485173,14.8812937 9.44851734,16.9803847 C9.71124461,16.8285665 9.97397189,16.6776574 10.2357901,16.5258392 C8.13760825,14.4267483 6.03851734,12.3267483 3.93942643,10.2285665 C3.2121537,9.50038466 2.46488098,8.78856648 1.78397189,8.01765739 C-0.273300842,5.68765739 0.867608249,2.23129375 3.17851734,0.653111931 C2.92124461,0.80220284 2.66397189,0.951293749 2.40579007,1.10038466 C5.21397189,-0.348706251 7.42488098,0.809475567 9.44851734,2.83402102 C9.47306279,2.85765739 10.1739719,2.44129375 10.2357901,2.37947557 C10.8639719,1.75220284 11.4439719,1.15493011 12.1812446,0.65220284 C11.9239719,0.801293749 11.6657901,0.950384658 11.4076082,1.09947557 C13.5357901,0.00220283968 15.7039719,0.296748294 17.4857901,1.87038466 C17.5621537,1.93856648 18.2057901,1.35674829 18.2721537,1.4158392" id="Fill-1" fill="#FFFFFF"></path>
    </g>
</svg>