<?xml version="1.0" encoding="UTF-8"?>
<svg width="17px" height="20px" viewBox="0 0 17 20" version="1.1" xmlns="http://www.w3.org/2000/svg" xmlns:xlink="http://www.w3.org/1999/xlink">
    <!-- Generator: Sketch 61 (89581) - https://sketch.com -->
    <title>lock</title>
    <desc>Created with Sketch.</desc>
    <g id="lock" stroke="none" stroke-width="1" fill="none" fill-rule="evenodd">
        <g id="Group-6" fill="#FFFFFF">
            <path d="M6.48530435,0.817391304 C8.78530435,-0.374782609 12.0644348,0.444347826 12.8192174,3.19130435 C13.2426957,4.72956522 13.0409565,6.46086957 13.0409565,8.04347826 L13.042316,7.88825489 C14.674372,7.90963725 16.2610525,8.17929983 16.4311304,9.23304348 C16.8293913,11.7026087 16.5189565,14.4043478 16.5189565,16.9026087 C16.5189565,17.6414716 16.2600268,18.4196656 15.771491,18.9806075 L15.6939676,19.063214 L15.5358471,19.1376 C15.4476984,19.1736463 15.357163,19.2063363 15.2645035,19.2359317 L15.2279676,19.245214 L15.1946182,19.292031 C15.1504149,19.346087 15.1037841,19.3977811 15.0546087,19.4469565 L15.6709676,19.088214 L15.6633011,19.0973906 C15.2910247,19.4749598 14.802671,19.7323355 14.2089265,19.7760107 L14.0276522,19.7826087 L7.07373913,19.7826087 C5.85721739,19.7826087 0.523304348,20.5756522 0.203304348,18.5930435 C-0.194956522,16.1234783 0.114608696,13.4217391 0.114608696,10.9234783 C0.114608696,10.0422101 0.37816093,9.34616848 0.87292731,8.85235149 L0.964967575,8.76621403 L1.3468913,8.6426087 L1.3468913,8.6426087 L1.36196758,8.63721403 L1.43972971,8.53405591 C1.48396092,8.48 1.53062069,8.42830585 1.57982609,8.37913043 L1.08496758,8.66421403 L1.11758084,8.638857 C1.46536164,8.37350827 1.89881877,8.185732 2.41041599,8.07948955 L2.60591304,8.04347826 L2.60591304,8.04347826 L3.58522024,8.0447433 C3.5384658,6.63513141 3.31689075,4.89502824 3.81486957,3.62608696 C4.3313913,2.30695652 5.26095652,1.45217391 6.48530435,0.817391304 Z M13.7172174,8.47826087 L1.85373913,8.47826087 L1.85373913,8.47826087 L1.36196758,8.63721403 L1.31420477,8.70315192 C0.287435897,10.2273353 0.82325429,13.2419442 0.864353003,14.9878187 L0.866782609,15.1834783 C0.866782609,16.8930435 0.471130435,19.3478261 2.91721739,19.3478261 L2.91721739,19.3478261 L9.98852174,19.3478261 C11.4113135,19.3478261 13.4341004,19.6943803 14.9804159,19.3156957 L15.2279676,19.245214 L15.3200622,19.122935 C16.3461553,17.5987517 15.8103119,14.5841427 15.7692122,12.8382683 L15.7667826,12.6426087 C15.7667826,10.9330435 16.1624348,8.47826087 13.7172174,8.47826087 L13.7172174,8.47826087 Z M8.41486957,0.677391304 C3.96269565,0.43826087 4.34530435,4.95391304 4.34530435,8.04347826 L4.34530435,8.04347826 L9.55982609,8.04347826 C10.0303574,8.04347826 11.1169887,7.92483739 12.2912485,7.89405348 C12.3103067,4.95327374 12.333835,0.889051258 8.41486957,0.677391304 Z" id="Combined-Shape"></path>
        </g>
    </g>
</svg>