<?xml version="1.0" encoding="UTF-8"?>
<svg width="21px" height="17px" viewBox="0 0 21 17" version="1.1" xmlns="http://www.w3.org/2000/svg" xmlns:xlink="http://www.w3.org/1999/xlink">
    <!-- Generator: Sketch 61 (89581) - https://sketch.com -->
    <title>mail</title>
    <desc>Created with Sketch.</desc>
    <g id="mail" stroke="none" stroke-width="1" fill="none" fill-rule="evenodd">
        <g id="Group-2" fill="#FFFFFF">
            <path d="M2,0.556874827 L17.919,0.556874827 C20.927,0.556874827 20,5.70487483 20,7.56087483 L20,12.6818748 C20,14.0018748 20.194,15.1538748 19.179,16.1688748 L20.028,15.6768748 C19.062,16.1788748 18.11,16.0568748 17.071,16.0568748 L11.863,16.0568748 L3.045,16.0568748 C0.003,16.0568748 0.865,11.4888748 0.865,9.54287483 L0.865,3.93187483 C0.865,2.61187483 0.671,1.45987483 1.687,0.444874827 L0.837,0.936874827 C1.225,0.809874827 1.612,0.683874827 2,0.556874827 C2.31,0.505874827 2.561,0.106874827 2.865,0.0568748269 C0.605,0.423874827 2.20268248e-13,1.95787483 2.20268248e-13,4.07187483 L2.20268248e-13,14.3208748 C2.20268248e-13,17.4348748 4.585,16.5568748 6.599,16.5568748 L17.313,16.5568748 C18.822,16.5568748 20.865,15.7678748 20.865,13.9498748 L20.865,3.93187483 C20.865,2.61187483 21.061,1.45987483 20.045,0.444874827 C19.381,-0.219125173 17.556,0.0568748269 16.729,0.0568748269 L5.365,0.0568748269 L2.865,0.0568748269 C2.573,0.0568748269 2.284,0.556874827 2,0.556874827" id="Fill-13"></path>
            <path d="M20,2.55687483 C16.666,4.88987483 13.333,7.22387483 10,9.55687483 C10.288,9.38987483 10.577,9.22387483 10.865,9.05687483 C7.532,6.72387483 4.199,4.38987483 0.865,2.05687483 C0.745,1.97187483 0.109,2.63387483 -1.13686838e-13,2.55687483 C3.333,4.88987483 6.666,7.22387483 10,9.55687483 C10.066,9.60387483 10.77,9.12387483 10.865,9.05687483 C14.199,6.72387483 17.532,4.38987483 20.865,2.05687483 C20.595,2.24587483 20.272,2.36687483 20,2.55687483" id="Fill-15"></path>
        </g>
    </g>
</svg>