<?xml version="1.0" encoding="UTF-8"?>
<svg width="15px" height="16px" viewBox="0 0 15 16" version="1.1" xmlns="http://www.w3.org/2000/svg" xmlns:xlink="http://www.w3.org/1999/xlink">
    <!-- Generator: Sketch 61 (89581) - https://sketch.com -->
    <title>next disabled</title>
    <desc>Created with Sketch.</desc>
    <g id="next-disabled" stroke="none" stroke-width="1" fill="none" fill-rule="evenodd" opacity="0.401529948">
        <path d="M1,0 C1.19175162,0 1.37946026,0.0539938408 1.54075759,0.155547342 L12.6915001,7.17610318 C12.8209882,7.25762943 12.9248339,7.36350822 13.0008048,7.48368283 L13,2.12363324 C13,1.58273411 13.4477153,1.14424872 14,1.14424872 C14.5522847,1.14424872 15,1.58273411 15,2.12363324 L15,13.8762475 C15,14.4171466 14.5522847,14.855632 14,14.855632 C13.4477153,14.855632 13,14.4171466 13,13.8762475 L13.0017968,8.51419989 L12.991921,8.52954997 C12.914455,8.6475684 12.8120028,8.74790854 12.6915001,8.82377753 L1.54075759,15.8443334 C1.07618755,16.1368287 0.457473696,16.0050985 0.158821525,15.5501058 C0.0551303801,15.3921337 0,15.2082948 0,15.0204962 L0,0.979384519 C0,0.438485385 0.44771525,0 1,0 Z" id="Path" fill="#F9F9F9"></path>
    </g>
</svg>