<?xml version="1.0" encoding="UTF-8"?>
<svg width="15px" height="16px" viewBox="0 0 15 16" version="1.1" xmlns="http://www.w3.org/2000/svg" xmlns:xlink="http://www.w3.org/1999/xlink">
    <!-- Generator: Sketch 61 (89581) - https://sketch.com -->
    <title>previous disabled</title>
    <desc>Created with Sketch.</desc>
    <g id="previous-disabled" stroke="none" stroke-width="1" fill="none" fill-rule="evenodd" opacity="0.401529948">
        <path d="M14,0 C14.5128358,0 14.9355072,0.378081786 14.9932723,0.865167594 L15,0.979384519 L15,15.0204962 C15,15.2082948 14.9448696,15.3921337 14.8411785,15.5501058 C14.5638586,15.972599 14.0105672,16.1163608 13.5609797,15.9005545 L13.4592424,15.8443334 L2.30849985,8.82377753 C2.21812286,8.76687579 2.13789923,8.69620902 2.07075501,8.61464297 L1.99941988,8.51612474 L1.99941988,8.51612474 L2,13.8762475 C2,14.4171466 1.55228475,14.855632 1,14.855632 C0.487164161,14.855632 0.0644928393,14.4775502 0.00672773133,13.9904644 L0,13.8762475 L0,2.12363324 C0,1.58273411 0.44771525,1.14424872 1,1.14424872 C1.51283584,1.14424872 1.93550716,1.52233051 1.99327227,2.00941632 L2,2.12363324 L1.99983069,7.48267892 C2.05676632,7.39285865 2.12929075,7.31105071 2.21647011,7.24146242 L2.30849985,7.17610318 L13.4592424,0.155547342 C13.6205397,0.0539938408 13.8082484,0 14,0 Z" id="Path" fill="#F9F9F9"></path>
    </g>
</svg>