<?xml version="1.0" encoding="UTF-8"?>
<svg width="19px" height="21px" viewBox="0 0 19 21" version="1.1" xmlns="http://www.w3.org/2000/svg" xmlns:xlink="http://www.w3.org/1999/xlink">
    <!-- Generator: Sketch 61 (89581) - https://sketch.com -->
    <title>Share</title>
    <desc>Created with Sketch.</desc>
    <g id="Share" stroke="none" stroke-width="1" fill="none" fill-rule="evenodd">
        <g id="Group-6" fill="#FFFFFF">
            <path d="M15.0433544,0.500312534 C16.4983544,0.579312534 17.5873544,1.45031253 17.9743544,2.85631253 C18.3853544,4.35231253 17.4423544,5.91731253 15.9083544,6.00031253 C12.6973544,6.17331253 11.6473544,0.683312534 15.0433544,0.500312534 C15.3433544,0.484312534 15.6153544,0.016312534 15.9083544,0.000312534003 C14.7153544,0.064312534 13.3793544,0.799312534 12.6223544,1.72931253 C11.0113544,3.70631253 12.7813544,6.37831253 15.0433544,6.50031253 C16.1723544,6.56131253 17.6403544,5.61931253 18.3293544,4.77131253 C19.9403544,2.79431253 18.1703544,0.122312534 15.9083544,0.000312534003 C15.6263544,-0.014687466 15.3173544,0.515312534 15.0433544,0.500312534" id="Fill-19"></path>
            <path d="M3.04335441,7.50031253 C4.49835441,7.57931253 5.58735441,8.45031253 5.97435441,9.85631253 C6.38535441,11.3523125 5.44135441,12.9173125 3.90835441,13.0003125 C0.697354409,13.1733125 -0.352645591,7.68331253 3.04335441,7.50031253 C3.34335441,7.48431253 3.61535441,7.01631253 3.90835441,7.00031253 C2.71535441,7.06431253 1.37935441,7.79931253 0.622354409,8.72931253 C-0.988645591,10.7063125 0.781354409,13.3783125 3.04335441,13.5003125 C4.17235441,13.5613125 5.64035441,12.6193125 6.32935441,11.7713125 C7.94035441,9.79431253 6.17035441,7.12231253 3.90835441,7.00031253 C3.62635441,6.98531253 3.31735441,7.51531253 3.04335441,7.50031253" id="Fill-21"></path>
            <path d="M15.0433544,14.5003125 C16.4983544,14.5783125 17.5873544,15.4503125 17.9743544,16.8563125 C18.3853544,18.3523125 17.4413544,19.9173125 15.9083544,20.0003125 C12.6973544,20.1733125 11.6473544,14.6833125 15.0433544,14.5003125 C15.3433544,14.4833125 15.6153544,14.0163125 15.9083544,14.0003125 C14.7153544,14.0643125 13.3793544,14.7993125 12.6223544,15.7293125 C11.0113544,17.7063125 12.7813544,20.3783125 15.0433544,20.5003125 C16.1723544,20.5613125 17.6403544,19.6193125 18.3293544,18.7713125 C19.9403544,16.7943125 18.1703544,14.1223125 15.9083544,14.0003125 C15.6263544,13.9843125 15.3173544,14.5153125 15.0433544,14.5003125" id="Fill-23"></path>
            <path d="M5.63315441,12.0101125 C7.90915441,13.3371125 10.1861544,14.6631125 12.4631544,15.9901125 C12.6121544,16.0771125 13.1921544,15.4101125 13.3281544,15.4901125 C11.0521544,14.1631125 8.77615441,12.8371125 6.49815441,11.5101125 C6.35015441,11.4231125 5.77015441,12.0901125 5.63315441,12.0101125" id="Fill-25"></path>
            <polygon id="Path-2" fill-rule="nonzero" points="12.6167742 5 12.8696503 5.43133942 6.25287607 9.31047455 6 8.87913514"></polygon>
        </g>
    </g>
</svg>