<?xml version="1.0" encoding="UTF-8"?>
<svg width="17px" height="20px" viewBox="0 0 17 20" version="1.1" xmlns="http://www.w3.org/2000/svg" xmlns:xlink="http://www.w3.org/1999/xlink">
    <!-- Generator: Sketch 61 (89581) - https://sketch.com -->
    <title>take_notes</title>
    <desc>Created with Sketch.</desc>
    <g id="take_notes" stroke="none" stroke-width="1" fill="none" fill-rule="evenodd">
        <path d="M2.1487008,0.218976339 C4.59441509,-0.175748936 7.24462641,0.0754767616 9.74727028,0.116462521 L10.333,0.121 L10.299,0.135 L10.3696532,0.121833482 L15.7201294,5.47230967 L15.7201294,5.47230967 C15.8420211,5.59441792 15.9272949,5.71450825 15.9863002,5.83625052 L16.0837484,5.8361192 C16.0532864,5.8361192 16.0227518,5.84215925 15.9921503,5.85287885 C16.1625919,6.21707744 16.1025505,6.59645825 16.0871038,7.08884366 L16.0839389,7.27897634 L16.0839389,17.0399287 C16.0839389,17.7978879 15.7552509,18.3847684 15.2583829,18.807992 L15.212,18.844 L15.0520521,18.9188875 C14.9724111,18.9515346 14.8920413,18.9804806 14.8110313,19.0061155 L14.683,19.041 L14.6232203,19.1201037 C14.5779244,19.1745603 14.5299579,19.227243 14.479177,19.278024 L15.173,18.876 L15.130755,18.9103927 C14.5196745,19.3723916 13.6978882,19.6124773 12.920277,19.6424354 L12.7544151,19.645643 L2.77251033,19.645643 C-0.351039458,19.645643 0.00274596141,17.1279177 0.0204405206,14.7725323 L0.0210817544,3.90945253 C0.0210817544,2.41707158 0.331557945,0.512309672 2.1487008,0.218976339 Z M5.26012937,0.598023958 C4.13733175,0.598023958 2.75361524,0.396833482 1.58507822,0.677950018 L1.426,0.721 L1.33814588,0.840520748 C0.179425881,2.5591417 0.797614453,6.06891694 0.843248739,8.01505789 L0.845843659,8.22469062 L0.845843659,16.965643 C0.845843659,19.8468282 4.45971033,19.2006464 6.45788389,19.1705044 L12.0229865,19.1694525 C12.8669426,19.1694525 13.7441474,19.2675083 14.5661688,19.0734775 L14.683,19.041 L14.7512403,18.9515397 C15.6334113,17.6782505 15.2926793,15.6081995 15.2613828,14.1017347 L15.259177,13.8999287 L15.259177,7.15897634 C15.259177,6.83152479 15.1999991,6.55556566 15.0967115,6.31133223 L9.5447008,6.31230967 L9.5447008,0.598023958 L5.26012937,0.598023958 Z M12.2744151,14.4075478 C12.0369151,14.4075478 11.7964984,14.7721311 11.5538031,14.8632769 L11.4496532,14.8837382 L3.83060556,14.8837382 C4.06727223,14.8837382 4.3083139,14.5191549 4.55117848,14.4280091 L4.65536747,14.4075478 L12.2744151,14.4075478 Z M12.2744151,10.598024 C12.0369151,10.598024 11.7964984,10.9626073 11.5538031,11.0537531 L11.4496532,11.0742144 L3.83060556,11.0742144 C4.06727223,11.0742144 4.3083139,10.7096311 4.55117848,10.6184853 L4.65536747,10.598024 L12.2744151,10.598024 Z M10.369,1.423 L10.3694627,5.8361192 L14.8186177,5.83628524 C14.4538562,5.35249779 13.9101879,4.96386883 13.3734627,4.42659539 L10.369,1.423 Z" id="Shape" fill="#FFFFFF"></path>
    </g>
</svg>